<?xml version="1.0" encoding="UTF-8" standalone="no"?>
<svg
   width="4085.6577"
   height="99.664673"
   viewBox="0 0 4085.6577 99.664673"
   version="1.1"
   id="svg18"
   sodipodi:docname="cy_2077_border.svg"
   inkscape:version="1.4.2 (2aeb623e1d, 2025-05-12)"
   xmlns:inkscape="http://www.inkscape.org/namespaces/inkscape"
   xmlns:sodipodi="http://sodipodi.sourceforge.net/DTD/sodipodi-0.dtd"
   xmlns="http://www.w3.org/2000/svg"
   xmlns:svg="http://www.w3.org/2000/svg">
  <defs
     id="defs18" />
  <sodipodi:namedview
     id="namedview18"
     pagecolor="#ffffff"
     bordercolor="#000000"
     borderopacity="0.25"
     inkscape:showpageshadow="2"
     inkscape:pageopacity="0.0"
     inkscape:pagecheckerboard="0"
     inkscape:deskcolor="#d1d1d1"
     inkscape:zoom="0.077045768"
     inkscape:cx="2083.1774"
     inkscape:cy="45.427544"
     inkscape:window-width="1312"
     inkscape:window-height="698"
     inkscape:window-x="0"
     inkscape:window-y="0"
     inkscape:window-maximized="1"
     inkscape:current-layer="g28">
    <inkscape:page
       x="0"
       y="0"
       width="4085.6577"
       height="99.664673"
       id="page2"
       margin="0"
       bleed="0" />
  </sodipodi:namedview>
  <g
     id="g23"
     inkscape:export-filename="cy_2077_border.svg"
     inkscape:export-xdpi="96"
     inkscape:export-ydpi="96"
     transform="translate(506.05066,-1488.4927)"
     style="fill:#05df72;fill-opacity:1">
    <g
       id="g28">
      <g
         id="g39">
        <g
           id="g20"
           transform="translate(-6.6199078,36.409493)"
           style="fill:#05df72;fill-opacity:1">
          <path
             d="m 92.786547,1493.0286 0.07201,-23.0074 33.797913,0.5275 -0.10393,22.3451 z"
             id="path2"
             style="fill:#05df72;fill-opacity:1" />
          <path
             d="m 135.09489,1493.0524 0.17679,-22.5284 c 10.9611,0.2192 22.33862,0.1332 33.33451,0.1823 l -0.1031,22.3823 z"
             id="path3"
             style="fill:#05df72;fill-opacity:1" />
          <path
             d="m -360.53332,1469.1564 c 6.25595,-1.9111 35.97326,-0.6192 43.59547,-0.2167 l -8.79536,8.8728 -13.37309,13.3198 c -7.29471,-7.1749 -14.43871,-14.5018 -21.42702,-21.9759 z"
             id="path4"
             style="fill:#05df72;fill-opacity:1" />
          <path
             d="m 847.51744,1474.8113 c 1.87472,-1.0114 22.31511,-1.0478 26.34583,-1.1915 l 0.002,21.0718 -0.31574,1.2337 -1.93361,0.7722 c -5.72765,-0.5196 -19.84035,-17.1724 -24.09847,-21.8862 z"
             id="path5"
             style="fill:#05df72;fill-opacity:1" />
          <path
             d="m 556.98024,1495.0344 c -0.13444,-3.3454 -0.39526,-5.3208 0.51982,-8.56 3.22878,-1.8808 4.75525,-1.1191 9.12506,-1.0677 0.13537,3.1454 0.55319,5.7671 -0.64006,8.612 -2.34783,1.6772 -5.85515,1.0937 -9.00482,1.0157 z"
             id="path9"
             style="fill:#05df72;fill-opacity:1" />
          <path
             d="m 556.98563,1483.1255 c -0.0641,-3.4252 -0.19741,-4.8582 0.56827,-8.2269 3.23998,-2.1393 4.47621,-1.3259 9.12628,-1.3292 0.13502,3.2198 0.41498,5.3795 -0.62947,8.4845 -2.33825,1.7674 -5.86543,1.1548 -9.06508,1.0716 z"
             id="path10"
             style="fill:#05df72;fill-opacity:1" />
          <path
             d="m 1214.9371,1499.3884 c -1.5372,-4.9136 -2.0025,-20.9648 1.1375,-25.2604 0.7868,4.9951 1.6917,21.1337 -1.1375,25.2604 z"
             id="path11"
             style="fill:#05df72;fill-opacity:1" />
          <path
             d="m 1220.927,1499.4183 c -1.5269,-4.9682 -1.9924,-20.9723 1.1275,-25.2639 0.8069,4.9785 1.7017,21.14 -1.1275,25.2639 z"
             id="path12"
             style="fill:#05df72;fill-opacity:1" />
          <path
             d="m 1226.9173,1499.3812 c -1.4674,-4.8737 -1.9728,-20.9175 1.1369,-25.1344 0.7271,4.9126 1.5718,21.1036 -1.1369,25.1344 z"
             id="path13"
             style="fill:#05df72;fill-opacity:1" />
          <path
             d="m 1208.9576,1499.2778 c -1.4172,-4.9192 -1.8927,-20.9241 1.1169,-25.1379 0.7772,4.8982 1.6718,21.1175 -1.1169,25.1379 z"
             id="path14"
             style="fill:#05df72;fill-opacity:1" />
          <path
             d="m -499.43075,1542.2409 0.20776,-44.669 195.15184,0.7035 37.07708,37.4796 186.120284,1.0175 37.244151,-36.9267 c 9.625778,-0.36 19.260387,-0.4684 28.891824,-0.325 15.746081,-15.2462 32.431113,-32.8447 48.222156,-47.4376 l 47.59285,47.8742 136.028165,0.71 6.69915,-6.0352 c 59.72918,1.3888 130.37094,2.0347 190.0989,0.8919 l 6.47789,6.0595 318.81161,1.8999 25.3227,25.2788 c 16.04292,-15.6409 43.25506,-43.9873 59.37735,-57.3432 11.21115,10.529 21.33086,21.3649 32.17094,32.1234 l 468.0925,2.6943 31.8012,32.0648 c 24.5697,0.1351 50.7113,-0.1615 75.1585,0.5163 l 32.0883,-31.8104 c 8.2502,-0.034 16.7209,-0.1696 24.9403,-0.016 l 16.5531,16.5802 16.6061,-16.3298 23.4509,-0.1498 -0.2077,44.6558 z"
             id="path18"
             style="fill:#05df72;fill-opacity:1" />
        </g>
        <g
           id="g22"
           transform="matrix(0.99987362,0,0,-1.0111981,2030.3723,2085.9155)"
           style="fill:#05df72;fill-opacity:1">
          <path
             d="m 1006.3406,565.0378 0.1071,-14.44266 104.5185,0.56613 -0.057,14.31289 z"
             id="path1"
             style="fill:#05df72;fill-opacity:1" />
          <path
             d="m 308.15777,561.86448 15.00316,-15.05038 6.08457,6.12736 9.16584,9.08473 z"
             id="path6"
             style="fill:#05df72;fill-opacity:1" />
          <path
             d="m -59.667593,560.22669 c 0.05653,-4.19879 -1.125412,-9.80434 0.539896,-13.30664 2.765565,-2.05016 2.853099,-1.30474 7.159648,-1.19771 -0.124729,4.24147 1.034733,9.08991 -0.39153,12.79832 -2.631711,2.29678 -2.890141,1.52857 -7.308014,1.70603 z"
             id="path7"
             style="fill:#05df72;fill-opacity:1" />
          <path
             d="m -46.655776,560.29621 c 0.07073,-4.24272 -1.009315,-9.1798 0.437404,-12.98611 2.822793,-2.3139 2.37224,-1.55098 6.996859,-1.45847 0.329388,3.78757 1.188058,9.02062 -0.104654,12.39564 -2.66258,2.69865 -2.370537,1.83 -7.329609,2.04894 z"
             id="path8"
             style="fill:#05df72;fill-opacity:1" />
          <path
             d="m -494.75072,536.02183 0.20358,-43.76952 2043.97784,9.50674 -0.2082,44.77952 -37.1595,-0.20284 -6.8974,-7.02215 -105.8387,-0.52227 -7.0726,6.98718 -141.7192,-0.49915 -15.2713,15.29614 c -5.2481,-4.72346 -10.622,-10.33651 -15.6486,-15.38995 -12.1316,0.32358 -14.3547,-5.46682 -22.2045,-14.14342 l -14.0341,13.75487 -254.81825,-0.96518 -24.78569,24.81599 c -30.67882,-0.3247 -61.34851,-0.46334 -92.02905,-0.41804 l -24.83317,-25.17677 -68.79888,-0.39999 -28.85476,-29.14452 -140.82834,-0.68501 c -9.6752,9.6951 -19.42012,19.32988 -29.22471,28.89439 l -199.71972,-0.73892 -13.30914,13.32924 -13.28611,-13.55294 c -37.6521,0.36489 -76.80384,-0.42722 -114.62838,-0.61315 l -270.637101,-1.03875 c -8.830569,8.70202 -17.610389,17.45728 -26.339439,26.26377 -19.81368,-15.59432 -39.90703,-30.83194 -60.27311,-45.69682 l -101.53584,-0.70226 -19.10225,18.93136 c -14.43582,0.14286 -29.47631,-1.07711 -44.27401,-1.17593 z"
             id="path17"
             style="fill:#05df72;fill-opacity:1" />
          <g
             id="g21"
             transform="translate(-1118.044,-733.407)"
             style="fill:#05df72;fill-opacity:1">
            <path
               d="m 1190.0899,1303.2604 c -1.5372,-4.9136 -2.0025,-20.9648 1.1375,-25.2604 0.7868,4.9951 1.6917,21.1337 -1.1375,25.2604 z"
               id="path11-6"
               style="fill:#05df72;fill-opacity:1" />
            <path
               d="m 1196.0798,1303.2903 c -1.5269,-4.9682 -1.9924,-20.9723 1.1275,-25.2639 0.8069,4.9785 1.7017,21.14 -1.1275,25.2639 z"
               id="path12-2"
               style="fill:#05df72;fill-opacity:1" />
            <path
               d="m 1202.0701,1303.2532 c -1.4674,-4.8737 -1.9728,-20.9175 1.1369,-25.1344 0.7271,4.9126 1.5718,21.1036 -1.1369,25.1344 z"
               id="path13-9"
               style="fill:#05df72;fill-opacity:1" />
            <path
               d="m 1184.1104,1303.1498 c -1.4172,-4.9192 -1.8927,-20.9241 1.1169,-25.1379 0.7772,4.8982 1.6718,21.1175 -1.1169,25.1379 z"
               id="path14-1"
               style="fill:#05df72;fill-opacity:1" />
          </g>
        </g>
        <g
           id="g27"
           transform="translate(4051.0497,35.807923)"
           style="fill:#05df72;fill-opacity:1">
          <path
             d="m 92.786547,1493.0286 0.07201,-23.0074 33.797913,0.5275 -0.10393,22.3451 z"
             id="path15"
             style="fill:#05df72;fill-opacity:1" />
          <path
             d="m 135.09489,1493.0524 0.17679,-22.5284 c 10.9611,0.2192 22.33862,0.1332 33.33451,0.1823 l -0.1031,22.3823 z"
             id="path16"
             style="fill:#05df72;fill-opacity:1" />
          <path
             d="m -360.53332,1469.1564 c 6.25595,-1.9111 35.97326,-0.6192 43.59547,-0.2167 l -8.79536,8.8728 -13.37309,13.3198 c -7.29471,-7.1749 -14.43871,-14.5018 -21.42702,-21.9759 z"
             id="path19"
             style="fill:#05df72;fill-opacity:1" />
          <path
             d="m 847.51744,1474.8113 c 1.87472,-1.0114 22.31511,-1.0478 26.34583,-1.1915 l 0.002,21.0718 -0.31574,1.2337 -1.93361,0.7722 c -5.72765,-0.5196 -19.84035,-17.1724 -24.09847,-21.8862 z"
             id="path20"
             style="fill:#05df72;fill-opacity:1" />
          <path
             d="m 556.98024,1495.0344 c -0.13444,-3.3454 -0.39526,-5.3208 0.51982,-8.56 3.22878,-1.8808 4.75525,-1.1191 9.12506,-1.0677 0.13537,3.1454 0.55319,5.7671 -0.64006,8.612 -2.34783,1.6772 -5.85515,1.0937 -9.00482,1.0157 z"
             id="path21"
             style="fill:#05df72;fill-opacity:1" />
          <path
             d="m 556.98563,1483.1255 c -0.0641,-3.4252 -0.19741,-4.8582 0.56827,-8.2269 3.23998,-2.1393 4.47621,-1.3259 9.12628,-1.3292 0.13502,3.2198 0.41498,5.3795 -0.62947,8.4845 -2.33825,1.7674 -5.86543,1.1548 -9.06508,1.0716 z"
             id="path22"
             style="fill:#05df72;fill-opacity:1" />
          <path
             d="m 1214.9371,1499.3884 c -1.5372,-4.9136 -2.0025,-20.9648 1.1375,-25.2604 0.7868,4.9951 1.6917,21.1337 -1.1375,25.2604 z"
             id="path23"
             style="fill:#05df72;fill-opacity:1" />
          <path
             d="m 1220.927,1499.4183 c -1.5269,-4.9682 -1.9924,-20.9723 1.1275,-25.2639 0.8069,4.9785 1.7017,21.14 -1.1275,25.2639 z"
             id="path24"
             style="fill:#05df72;fill-opacity:1" />
          <path
             d="m 1226.9173,1499.3812 c -1.4674,-4.8737 -1.9728,-20.9175 1.1369,-25.1344 0.7271,4.9126 1.5718,21.1036 -1.1369,25.1344 z"
             id="path25"
             style="fill:#05df72;fill-opacity:1" />
          <path
             d="m 1208.9576,1499.2778 c -1.4172,-4.9192 -1.8927,-20.9241 1.1169,-25.1379 0.7772,4.8982 1.6718,21.1175 -1.1169,25.1379 z"
             id="path26"
             style="fill:#05df72;fill-opacity:1" />
          <path
             d="m -499.43075,1542.2409 0.20776,-44.669 195.15184,0.7035 37.07708,37.4796 186.120284,1.0175 37.244151,-36.9267 c 9.625778,-0.36 19.260387,-0.4684 28.891824,-0.325 15.746081,-15.2462 32.431113,-32.8447 48.222156,-47.4376 l 47.59285,47.8742 136.028165,0.71 6.69915,-6.0352 c 59.72918,1.3888 130.37094,2.0347 190.0989,0.8919 l 6.47789,6.0595 318.81161,1.8999 25.3227,25.2788 c 16.04292,-15.6409 43.25506,-43.9873 59.37735,-57.3432 11.21115,10.529 21.33086,21.3649 32.17094,32.1234 l 468.0925,2.6943 31.8012,32.0648 c 24.5697,0.1351 50.7113,-0.1615 75.1585,0.5163 l 32.0883,-31.8104 c 8.2502,-0.034 16.7209,-0.1696 24.9403,-0.016 l 16.5531,16.5802 16.6061,-16.3298 23.4509,-0.1498 -0.2077,44.6558 z"
             id="path27"
             style="fill:#05df72;fill-opacity:1" />
        </g>
        <g
           id="g38"
           transform="matrix(-1,0,0,1,-893.6263,35.807923)"
           style="fill:#05df72;fill-opacity:1">
          <path
             d="m 92.786547,1493.0286 0.07201,-23.0074 33.797913,0.5275 -0.10393,22.3451 z"
             id="path28"
             style="fill:#05df72;fill-opacity:1" />
          <path
             d="m 135.09489,1493.0524 0.17679,-22.5284 c 10.9611,0.2192 22.33862,0.1332 33.33451,0.1823 l -0.1031,22.3823 z"
             id="path29"
             style="fill:#05df72;fill-opacity:1" />
          <path
             d="m -360.53332,1469.1564 c 6.25595,-1.9111 35.97326,-0.6192 43.59547,-0.2167 l -8.79536,8.8728 -13.37309,13.3198 c -7.29471,-7.1749 -14.43871,-14.5018 -21.42702,-21.9759 z"
             id="path30"
             style="fill:#05df72;fill-opacity:1" />
          <path
             d="m 847.51744,1474.8113 c 1.87472,-1.0114 22.31511,-1.0478 26.34583,-1.1915 l 0.002,21.0718 -0.31574,1.2337 -1.93361,0.7722 c -5.72765,-0.5196 -19.84035,-17.1724 -24.09847,-21.8862 z"
             id="path31"
             style="fill:#05df72;fill-opacity:1" />
          <path
             d="m 556.98024,1495.0344 c -0.13444,-3.3454 -0.39526,-5.3208 0.51982,-8.56 3.22878,-1.8808 4.75525,-1.1191 9.12506,-1.0677 0.13537,3.1454 0.55319,5.7671 -0.64006,8.612 -2.34783,1.6772 -5.85515,1.0937 -9.00482,1.0157 z"
             id="path32"
             style="fill:#05df72;fill-opacity:1" />
          <path
             d="m 556.98563,1483.1255 c -0.0641,-3.4252 -0.19741,-4.8582 0.56827,-8.2269 3.23998,-2.1393 4.47621,-1.3259 9.12628,-1.3292 0.13502,3.2198 0.41498,5.3795 -0.62947,8.4845 -2.33825,1.7674 -5.86543,1.1548 -9.06508,1.0716 z"
             id="path33"
             style="fill:#05df72;fill-opacity:1" />
          <path
             d="m 1214.9371,1499.3884 c -1.5372,-4.9136 -2.0025,-20.9648 1.1375,-25.2604 0.7868,4.9951 1.6917,21.1337 -1.1375,25.2604 z"
             id="path34"
             style="fill:#05df72;fill-opacity:1" />
          <path
             d="m 1220.927,1499.4183 c -1.5269,-4.9682 -1.9924,-20.9723 1.1275,-25.2639 0.8069,4.9785 1.7017,21.14 -1.1275,25.2639 z"
             id="path35"
             style="fill:#05df72;fill-opacity:1" />
          <path
             d="m 1226.9173,1499.3812 c -1.4674,-4.8737 -1.9728,-20.9175 1.1369,-25.1344 0.7271,4.9126 1.5718,21.1036 -1.1369,25.1344 z"
             id="path36"
             style="fill:#05df72;fill-opacity:1" />
          <path
             d="m 1208.9576,1499.2778 c -1.4172,-4.9192 -1.8927,-20.9241 1.1169,-25.1379 0.7772,4.8982 1.6718,21.1175 -1.1169,25.1379 z"
             id="path37"
             style="fill:#05df72;fill-opacity:1" />
          <path
             d="m -499.43075,1542.2409 0.20776,-44.669 195.15184,0.7035 37.07708,37.4796 186.120284,1.0175 37.244151,-36.9267 c 9.625778,-0.36 19.260387,-0.4684 28.891824,-0.325 15.746081,-15.2462 32.431113,-32.8447 48.222156,-47.4376 l 47.59285,47.8742 136.028165,0.71 6.69915,-6.0352 c 59.72918,1.3888 130.37094,2.0347 190.0989,0.8919 l 6.47789,6.0595 318.81161,1.8999 25.3227,25.2788 c 16.04292,-15.6409 43.25506,-43.9873 59.37735,-57.3432 11.21115,10.529 21.33086,21.3649 32.17094,32.1234 l 468.0925,2.6943 31.8012,32.0648 c 24.5697,0.1351 50.7113,-0.1615 75.1585,0.5163 l 32.0883,-31.8104 c 8.2502,-0.034 16.7209,-0.1696 24.9403,-0.016 l 16.5531,16.5802 16.6061,-16.3298 23.4509,-0.1498 -0.2077,44.6558 z"
             id="path38"
             style="fill:#05df72;fill-opacity:1" />
        </g>
      </g>
    </g>
  </g>
</svg>
